# xmcd
#
# Track frame offsets:
#	150
#	52102
#	97709
#	168209
#	220382
#
# Disc length: 3724 seconds
#
# Revision: 0
# Processed by: cddbd v1.5.2PL0 Copyright (c) Steve Scherf et al.
# Submitted via: EZCDAudioConverter 8.3.2.1
#
DISCID=3b0e8a05
DTITLE=Stuart McLean - Postcards from Canada - Disc 1
DYEAR=2019
DGENRE=Comedy
TTITLE0=Nelson
TTITLE1=Powell River
TTITLE2=Vancouver
TTITLE3=Whitehorse
TTITLE4=Tofino
EXTD=
EXTT0=
EXTT1=
EXTT2=
EXTT3=
EXTT4=
PLAYORDER=
